<?xml version="1.0" standalone="no"?>
<!DOCTYPE svg PUBLIC "-//W3C//DTD SVG 20010904//EN"
 "http://www.w3.org/TR/2001/REC-SVG-20010904/DTD/svg10.dtd">
<svg version="1.0" xmlns="http://www.w3.org/2000/svg"
 width="500.000000pt" height="500.000000pt" viewBox="0 0 500.000000 500.000000"
 preserveAspectRatio="xMidYMid meet">
<metadata>
Created by potrace 1.14, written by Peter Selinger 2001-2017
</metadata>
<g transform="translate(0.000000,500.000000) scale(0.100000,-0.100000)"
fill="#000000" stroke="none">
<path d="M985 4990 c-414 -55 -753 -303 -831 -610 -15 -59 -17 -222 -16 -1885
0 -1001 1 -1868 2 -1926 5 -255 137 -447 370 -538 l65 -26 1625 -2 c1529 -2
1629 -1 1690 16 80 22 141 52 200 100 69 55 86 74 135 150 25 38 54 72 64 76
34 10 129 90 170 141 85 108 125 227 123 365 -1 51 1 56 28 73 55 32 147 134
183 204 72 136 68 31 64 1740 -3 1372 -5 1542 -19 1588 -20 64 -58 154 -73
174 -6 8 -17 29 -25 45 -8 17 -52 67 -97 112 -66 66 -99 90 -175 127 -51 26
-102 48 -113 50 -11 2 -47 11 -80 20 -53 14 -233 15 -1645 14 -872 0 -1612 -4
-1645 -8z"/>
</g>
</svg>
